<mxfile host="app.diagrams.net" modified="2020-10-22T06:08:26.921Z" agent="5.0 (Windows NT 10.0; Win64; x64) AppleWebKit/537.36 (KHTML, like Gecko) Chrome/86.0.4240.75 Safari/537.36" etag="wHxnBl18ASMIpSNn3zNo" version="13.8.1" type="github">
  <diagram id="EPZU8LvpSXaMudUP-OnR" name="Page-1">
    <mxGraphModel dx="1567" dy="578" grid="1" gridSize="10" guides="1" tooltips="1" connect="1" arrows="1" fold="1" page="1" pageScale="1" pageWidth="850" pageHeight="1100" math="0" shadow="0">
      <root>
        <mxCell id="0" />
        <mxCell id="1" parent="0" />
        <mxCell id="7uoYmfErAtaUU7evWr2x-1" value="SUPIR" style="shape=umlActor;verticalLabelPosition=bottom;verticalAlign=top;html=1;outlineConnect=0;" parent="1" vertex="1">
          <mxGeometry x="100" y="300" width="60" height="120" as="geometry" />
        </mxCell>
        <mxCell id="7uoYmfErAtaUU7evWr2x-2" value="MESIN PARKIR" style="text;html=1;strokeColor=none;fillColor=none;align=center;verticalAlign=middle;whiteSpace=wrap;rounded=0;" parent="1" vertex="1">
          <mxGeometry x="270" y="140" width="100" height="20" as="geometry" />
        </mxCell>
        <mxCell id="7uoYmfErAtaUU7evWr2x-3" value="&amp;lt;&amp;lt;system&amp;gt;&amp;gt;" style="text;html=1;strokeColor=none;fillColor=none;align=center;verticalAlign=middle;whiteSpace=wrap;rounded=0;" parent="1" vertex="1">
          <mxGeometry x="270" y="120" width="100" height="20" as="geometry" />
        </mxCell>
        <mxCell id="7uoYmfErAtaUU7evWr2x-4" value="CATAT WAKTU KELUAR" style="ellipse;whiteSpace=wrap;html=1;" parent="1" vertex="1">
          <mxGeometry x="530" y="210" width="170" height="60" as="geometry" />
        </mxCell>
        <mxCell id="7uoYmfErAtaUU7evWr2x-29" style="edgeStyle=orthogonalEdgeStyle;rounded=0;orthogonalLoop=1;jettySize=auto;html=1;exitX=0.5;exitY=1;exitDx=0;exitDy=0;entryX=0.5;entryY=0;entryDx=0;entryDy=0;strokeColor=#000000;" parent="1" source="7uoYmfErAtaUU7evWr2x-21" target="7uoYmfErAtaUU7evWr2x-28" edge="1">
          <mxGeometry relative="1" as="geometry" />
        </mxCell>
        <mxCell id="7uoYmfErAtaUU7evWr2x-21" value="MENGECEK TIKET" style="ellipse;whiteSpace=wrap;html=1;" parent="1" vertex="1">
          <mxGeometry x="260" y="210" width="170" height="60" as="geometry" />
        </mxCell>
        <mxCell id="7uoYmfErAtaUU7evWr2x-24" value="" style="endArrow=classic;html=1;dashed=1;strokeColor=#000000;" parent="1" edge="1">
          <mxGeometry relative="1" as="geometry">
            <mxPoint x="430" y="239.57999999999998" as="sourcePoint" />
            <mxPoint x="530" y="239.57999999999998" as="targetPoint" />
          </mxGeometry>
        </mxCell>
        <mxCell id="7uoYmfErAtaUU7evWr2x-25" value="INCLUDE" style="edgeLabel;resizable=0;html=1;align=center;verticalAlign=middle;" parent="7uoYmfErAtaUU7evWr2x-24" connectable="0" vertex="1">
          <mxGeometry relative="1" as="geometry" />
        </mxCell>
        <mxCell id="7uoYmfErAtaUU7evWr2x-57" style="edgeStyle=orthogonalEdgeStyle;rounded=0;orthogonalLoop=1;jettySize=auto;html=1;exitX=0;exitY=0.5;exitDx=0;exitDy=0;endArrow=classic;endFill=1;strokeColor=#000000;" parent="1" source="7uoYmfErAtaUU7evWr2x-28" edge="1">
          <mxGeometry relative="1" as="geometry">
            <mxPoint x="180" y="340" as="targetPoint" />
            <Array as="points">
              <mxPoint x="190" y="340" />
              <mxPoint x="190" y="340" />
            </Array>
          </mxGeometry>
        </mxCell>
        <mxCell id="7uoYmfErAtaUU7evWr2x-59" style="edgeStyle=orthogonalEdgeStyle;rounded=0;orthogonalLoop=1;jettySize=auto;html=1;exitX=0.5;exitY=1;exitDx=0;exitDy=0;entryX=0.5;entryY=0;entryDx=0;entryDy=0;endArrow=classic;endFill=1;strokeColor=#000000;" parent="1" source="7uoYmfErAtaUU7evWr2x-28" target="7uoYmfErAtaUU7evWr2x-58" edge="1">
          <mxGeometry relative="1" as="geometry" />
        </mxCell>
        <mxCell id="7uoYmfErAtaUU7evWr2x-28" value="MENAMPILKAN HARGA BAYAR" style="ellipse;whiteSpace=wrap;html=1;" parent="1" vertex="1">
          <mxGeometry x="260" y="310" width="170" height="60" as="geometry" />
        </mxCell>
        <mxCell id="7uoYmfErAtaUU7evWr2x-51" style="edgeStyle=orthogonalEdgeStyle;rounded=0;orthogonalLoop=1;jettySize=auto;html=1;entryX=0.5;entryY=1;entryDx=0;entryDy=0;dashed=1;endArrow=classic;endFill=1;strokeColor=#000000;" parent="1" source="7uoYmfErAtaUU7evWr2x-39" target="7uoYmfErAtaUU7evWr2x-4" edge="1">
          <mxGeometry relative="1" as="geometry" />
        </mxCell>
        <mxCell id="7uoYmfErAtaUU7evWr2x-39" value="KALKULASI HARGA" style="ellipse;whiteSpace=wrap;html=1;" parent="1" vertex="1">
          <mxGeometry x="530" y="310" width="170" height="60" as="geometry" />
        </mxCell>
        <mxCell id="7uoYmfErAtaUU7evWr2x-44" style="edgeStyle=orthogonalEdgeStyle;rounded=0;orthogonalLoop=1;jettySize=auto;html=1;entryX=1;entryY=0.5;entryDx=0;entryDy=0;dashed=1;endArrow=none;endFill=0;strokeColor=#000000;" parent="1" source="7uoYmfErAtaUU7evWr2x-41" target="7uoYmfErAtaUU7evWr2x-28" edge="1">
          <mxGeometry relative="1" as="geometry" />
        </mxCell>
        <mxCell id="7uoYmfErAtaUU7evWr2x-45" style="edgeStyle=orthogonalEdgeStyle;rounded=0;orthogonalLoop=1;jettySize=auto;html=1;entryX=0;entryY=0.5;entryDx=0;entryDy=0;dashed=1;endArrow=classic;endFill=1;strokeColor=#000000;" parent="1" source="7uoYmfErAtaUU7evWr2x-41" target="7uoYmfErAtaUU7evWr2x-39" edge="1">
          <mxGeometry relative="1" as="geometry" />
        </mxCell>
        <mxCell id="7uoYmfErAtaUU7evWr2x-41" value="INCLUDE" style="text;html=1;strokeColor=none;fillColor=none;align=center;verticalAlign=middle;whiteSpace=wrap;rounded=0;" parent="1" vertex="1">
          <mxGeometry x="450" y="330" width="60" height="20" as="geometry" />
        </mxCell>
        <mxCell id="7uoYmfErAtaUU7evWr2x-48" value="INCLUDE" style="text;html=1;strokeColor=none;fillColor=none;align=center;verticalAlign=middle;whiteSpace=wrap;rounded=0;" parent="1" vertex="1">
          <mxGeometry x="620" y="280" width="60" height="20" as="geometry" />
        </mxCell>
        <mxCell id="7uoYmfErAtaUU7evWr2x-55" value="" style="endArrow=none;html=1;strokeColor=#000000;" parent="1" edge="1">
          <mxGeometry width="50" height="50" relative="1" as="geometry">
            <mxPoint x="130" y="280" as="sourcePoint" />
            <mxPoint x="130" y="240" as="targetPoint" />
          </mxGeometry>
        </mxCell>
        <mxCell id="7uoYmfErAtaUU7evWr2x-56" value="" style="endArrow=classic;html=1;strokeColor=#000000;entryX=0;entryY=0.5;entryDx=0;entryDy=0;" parent="1" target="7uoYmfErAtaUU7evWr2x-21" edge="1">
          <mxGeometry width="50" height="50" relative="1" as="geometry">
            <mxPoint x="130" y="240" as="sourcePoint" />
            <mxPoint x="215" y="239.66" as="targetPoint" />
          </mxGeometry>
        </mxCell>
        <mxCell id="7uoYmfErAtaUU7evWr2x-61" style="edgeStyle=orthogonalEdgeStyle;rounded=0;orthogonalLoop=1;jettySize=auto;html=1;entryX=0;entryY=0.5;entryDx=0;entryDy=0;endArrow=classic;endFill=1;strokeColor=#000000;dashed=1;" parent="1" source="7uoYmfErAtaUU7evWr2x-62" target="7uoYmfErAtaUU7evWr2x-60" edge="1">
          <mxGeometry relative="1" as="geometry" />
        </mxCell>
        <mxCell id="7uoYmfErAtaUU7evWr2x-70" style="edgeStyle=orthogonalEdgeStyle;rounded=0;orthogonalLoop=1;jettySize=auto;html=1;endArrow=classic;endFill=1;strokeColor=#000000;" parent="1" source="7uoYmfErAtaUU7evWr2x-58" target="7uoYmfErAtaUU7evWr2x-69" edge="1">
          <mxGeometry relative="1" as="geometry" />
        </mxCell>
        <mxCell id="7uoYmfErAtaUU7evWr2x-58" value="MENERIMA UANG" style="ellipse;whiteSpace=wrap;html=1;" parent="1" vertex="1">
          <mxGeometry x="260" y="410" width="170" height="60" as="geometry" />
        </mxCell>
        <mxCell id="7uoYmfErAtaUU7evWr2x-64" style="edgeStyle=orthogonalEdgeStyle;rounded=0;orthogonalLoop=1;jettySize=auto;html=1;entryX=0.5;entryY=1;entryDx=0;entryDy=0;dashed=1;endArrow=classic;endFill=1;strokeColor=#000000;" parent="1" source="7uoYmfErAtaUU7evWr2x-60" target="7uoYmfErAtaUU7evWr2x-39" edge="1">
          <mxGeometry relative="1" as="geometry" />
        </mxCell>
        <mxCell id="7uoYmfErAtaUU7evWr2x-60" value="KALKULASI" style="ellipse;whiteSpace=wrap;html=1;" parent="1" vertex="1">
          <mxGeometry x="530" y="410" width="170" height="60" as="geometry" />
        </mxCell>
        <mxCell id="7uoYmfErAtaUU7evWr2x-62" value="INCLUDE" style="text;html=1;strokeColor=none;fillColor=none;align=center;verticalAlign=middle;whiteSpace=wrap;rounded=0;" parent="1" vertex="1">
          <mxGeometry x="450" y="430" width="60" height="20" as="geometry" />
        </mxCell>
        <mxCell id="7uoYmfErAtaUU7evWr2x-63" style="edgeStyle=orthogonalEdgeStyle;rounded=0;orthogonalLoop=1;jettySize=auto;html=1;entryX=0;entryY=0.5;entryDx=0;entryDy=0;endArrow=none;endFill=0;strokeColor=#000000;dashed=1;" parent="1" source="7uoYmfErAtaUU7evWr2x-58" target="7uoYmfErAtaUU7evWr2x-62" edge="1">
          <mxGeometry relative="1" as="geometry">
            <mxPoint x="430" y="439.9999999999999" as="sourcePoint" />
            <mxPoint x="530" y="439.9999999999999" as="targetPoint" />
          </mxGeometry>
        </mxCell>
        <mxCell id="7uoYmfErAtaUU7evWr2x-65" value="INCLUDE" style="text;html=1;strokeColor=none;fillColor=none;align=center;verticalAlign=middle;whiteSpace=wrap;rounded=0;" parent="1" vertex="1">
          <mxGeometry x="620" y="380" width="60" height="20" as="geometry" />
        </mxCell>
        <mxCell id="7uoYmfErAtaUU7evWr2x-67" style="edgeStyle=orthogonalEdgeStyle;rounded=0;orthogonalLoop=1;jettySize=auto;html=1;exitX=0.5;exitY=0;exitDx=0;exitDy=0;entryX=0.5;entryY=1;entryDx=0;entryDy=0;dashed=1;endArrow=classic;endFill=1;strokeColor=#000000;" parent="1" source="7uoYmfErAtaUU7evWr2x-66" target="7uoYmfErAtaUU7evWr2x-60" edge="1">
          <mxGeometry relative="1" as="geometry" />
        </mxCell>
        <mxCell id="7uoYmfErAtaUU7evWr2x-66" value="MENGECEK KEMBALIAN" style="ellipse;whiteSpace=wrap;html=1;" parent="1" vertex="1">
          <mxGeometry x="530" y="510" width="170" height="60" as="geometry" />
        </mxCell>
        <mxCell id="7uoYmfErAtaUU7evWr2x-68" value="EXTEND" style="text;html=1;strokeColor=none;fillColor=none;align=center;verticalAlign=middle;whiteSpace=wrap;rounded=0;" parent="1" vertex="1">
          <mxGeometry x="620" y="480" width="60" height="20" as="geometry" />
        </mxCell>
        <mxCell id="7uoYmfErAtaUU7evWr2x-78" style="edgeStyle=orthogonalEdgeStyle;rounded=0;orthogonalLoop=1;jettySize=auto;html=1;entryX=0;entryY=0.5;entryDx=0;entryDy=0;endArrow=classic;endFill=1;strokeColor=#000000;dashed=1;" parent="1" source="7uoYmfErAtaUU7evWr2x-79" target="7uoYmfErAtaUU7evWr2x-72" edge="1">
          <mxGeometry relative="1" as="geometry" />
        </mxCell>
        <mxCell id="7uoYmfErAtaUU7evWr2x-69" value="RESI/STRUK/TIKET" style="ellipse;whiteSpace=wrap;html=1;" parent="1" vertex="1">
          <mxGeometry x="260" y="610" width="170" height="60" as="geometry" />
        </mxCell>
        <mxCell id="7uoYmfErAtaUU7evWr2x-72" value="KEMBALIAN" style="ellipse;whiteSpace=wrap;html=1;" parent="1" vertex="1">
          <mxGeometry x="530" y="610" width="170" height="60" as="geometry" />
        </mxCell>
        <mxCell id="7uoYmfErAtaUU7evWr2x-73" value="" style="endArrow=none;html=1;strokeColor=#000000;" parent="1" edge="1">
          <mxGeometry width="50" height="50" relative="1" as="geometry">
            <mxPoint x="700" y="440" as="sourcePoint" />
            <mxPoint x="760" y="440" as="targetPoint" />
          </mxGeometry>
        </mxCell>
        <mxCell id="7uoYmfErAtaUU7evWr2x-76" value="" style="endArrow=none;html=1;strokeColor=#000000;" parent="1" edge="1">
          <mxGeometry width="50" height="50" relative="1" as="geometry">
            <mxPoint x="760" y="640" as="sourcePoint" />
            <mxPoint x="760" y="440" as="targetPoint" />
          </mxGeometry>
        </mxCell>
        <mxCell id="7uoYmfErAtaUU7evWr2x-77" value="" style="endArrow=none;html=1;strokeColor=#000000;" parent="1" edge="1">
          <mxGeometry width="50" height="50" relative="1" as="geometry">
            <mxPoint x="700" y="640" as="sourcePoint" />
            <mxPoint x="760" y="640" as="targetPoint" />
          </mxGeometry>
        </mxCell>
        <mxCell id="7uoYmfErAtaUU7evWr2x-79" value="INCLUDE" style="text;html=1;strokeColor=none;fillColor=none;align=center;verticalAlign=middle;whiteSpace=wrap;rounded=0;" parent="1" vertex="1">
          <mxGeometry x="450" y="630" width="60" height="20" as="geometry" />
        </mxCell>
        <mxCell id="7uoYmfErAtaUU7evWr2x-80" style="edgeStyle=orthogonalEdgeStyle;rounded=0;orthogonalLoop=1;jettySize=auto;html=1;entryX=0;entryY=0.5;entryDx=0;entryDy=0;endArrow=none;endFill=0;strokeColor=#000000;dashed=1;" parent="1" source="7uoYmfErAtaUU7evWr2x-69" target="7uoYmfErAtaUU7evWr2x-79" edge="1">
          <mxGeometry relative="1" as="geometry">
            <mxPoint x="430" y="640" as="sourcePoint" />
            <mxPoint x="530" y="640" as="targetPoint" />
          </mxGeometry>
        </mxCell>
        <mxCell id="7uoYmfErAtaUU7evWr2x-83" value="" style="endArrow=none;html=1;strokeColor=#000000;endFill=0;" parent="1" edge="1">
          <mxGeometry width="50" height="50" relative="1" as="geometry">
            <mxPoint x="200" y="720" as="sourcePoint" />
            <mxPoint x="200" y="120" as="targetPoint" />
          </mxGeometry>
        </mxCell>
        <mxCell id="7uoYmfErAtaUU7evWr2x-84" value="" style="endArrow=none;html=1;strokeColor=#000000;" parent="1" edge="1">
          <mxGeometry width="50" height="50" relative="1" as="geometry">
            <mxPoint x="200" y="120" as="sourcePoint" />
            <mxPoint x="800" y="120" as="targetPoint" />
          </mxGeometry>
        </mxCell>
        <mxCell id="7uoYmfErAtaUU7evWr2x-85" value="" style="endArrow=none;html=1;strokeColor=#000000;" parent="1" edge="1">
          <mxGeometry width="50" height="50" relative="1" as="geometry">
            <mxPoint x="800" y="725.7142857142857" as="sourcePoint" />
            <mxPoint x="800" y="120" as="targetPoint" />
          </mxGeometry>
        </mxCell>
        <mxCell id="7uoYmfErAtaUU7evWr2x-86" value="" style="endArrow=none;html=1;strokeColor=#000000;" parent="1" edge="1">
          <mxGeometry width="50" height="50" relative="1" as="geometry">
            <mxPoint x="200" y="720" as="sourcePoint" />
            <mxPoint x="800" y="720" as="targetPoint" />
          </mxGeometry>
        </mxCell>
        <mxCell id="NkHwFirRy7mmma9Rv57M-2" value="" style="endArrow=none;html=1;strokeColor=#000000;" edge="1" parent="1">
          <mxGeometry width="50" height="50" relative="1" as="geometry">
            <mxPoint x="130" y="640" as="sourcePoint" />
            <mxPoint x="260" y="640" as="targetPoint" />
          </mxGeometry>
        </mxCell>
        <mxCell id="NkHwFirRy7mmma9Rv57M-3" value="" style="endArrow=classic;html=1;strokeColor=#000000;" edge="1" parent="1">
          <mxGeometry width="50" height="50" relative="1" as="geometry">
            <mxPoint x="130" y="640" as="sourcePoint" />
            <mxPoint x="130" y="460" as="targetPoint" />
          </mxGeometry>
        </mxCell>
      </root>
    </mxGraphModel>
  </diagram>
</mxfile>
